<svg width="143" height="55" xmlns="http://www.w3.org/2000/svg"><path d="M83.888 31.94c7.804 0 13.998-3.963 13.998-12.222 0-3.867-1.366-6.875-4.048-9.215-2.244-1.91-5.463-3.007-9.95-3.007h-1.317V31.94h1.317zm53.308-25.877C141.05 9.835 143 14.418 143 19.813s-1.95 9.979-5.853 13.75c-3.853 3.724-8.632 5.586-14.095 5.586-5.462 0-10.193-1.862-14.095-5.586-2.39-2.291-4.048-4.965-4.975-7.877-.975 3.15-2.78 5.872-5.413 8.164-2.146 1.862-4.487 3.199-7.024 3.867-2.048.573-4.682.86-7.9.86H70.231l-4.146-9.836H53.064l-4.292 9.835H36.58l-4.05-20.768C29.409 24.826 21.8 38.72 21.8 38.72L10.632 17.617C9.998 23.633 7.121 38.53 7.121 38.53H0L8.438 0 21.8 25.543 35.262 0l7.658 34.852L59.795.143l15.802 33.373V1.003h8.145c2.975 0 5.56.286 7.706.811 6.389 1.719 10.827 6.302 12.583 12.175C106.518 6.063 114.029.382 123.052.382c5.511 0 10.242 1.91 14.144 5.681zm-23.313 4.631c-2.487 2.483-3.707 5.443-3.707 9.024 0 3.533 1.22 6.54 3.756 9.071 2.536 2.483 5.56 3.724 9.169 3.724 7.267 0 12.925-5.73 12.925-12.795 0-3.58-1.268-6.54-3.756-9.024-2.487-2.482-5.56-3.724-9.169-3.724-3.707 0-6.73 1.242-9.218 3.724zm18.436 42.921h.731V48.46l4.146 5.156h.585v-6.302h-.731v5.061l-4.048-5.06h-.683v6.301zm-6.877.096c1.61 0 2.682-.955 2.682-2.77v-3.628h-.731v3.677c0 1.384-.732 2.1-1.951 2.1-1.22 0-1.95-.764-1.95-2.148v-3.629h-.732v3.677c0 1.766 1.121 2.72 2.682 2.72zm-1.268-6.923h.878v-.811h-.878v.811zm1.707 0h.878v-.811h-.878v.811zM116.371 55l.633-1.337c1.171-.095 2-.764 2-1.766 0-.955-.683-1.48-2.097-1.767-1.415-.286-1.756-.62-1.756-1.241 0-.573.537-1.003 1.366-1.003.683 0 1.268.191 1.853.669l.439-.573c-.683-.525-1.317-.764-2.244-.764-1.219 0-2.097.716-2.097 1.719 0 1.05.683 1.527 2.146 1.814 1.366.286 1.659.62 1.659 1.193 0 .621-.586 1.05-1.415 1.05-.878 0-1.56-.286-2.195-.906l-.439.525c.683.62 1.415.907 2.244 1.002l-.732 1.003.634.382zm-8.682-1.29c1.61 0 2.682-.954 2.682-2.768v-3.629h-.731v3.677c0 1.384-.732 2.1-1.951 2.1-1.22 0-1.95-.764-1.95-2.148v-3.629h-.733v3.677c0 1.766 1.073 2.72 2.683 2.72zm-1.268-6.922h.878v-.811h-.878v.811zm1.707 0h.878v-.811h-.878v.811zm-11.364 3.724v-2.578h2c1.024 0 1.658.477 1.658 1.241 0 .812-.683 1.29-1.658 1.29h-2v.047zm-.732 3.103h.732v-2.434h1.853l1.854 2.434h.878l-2-2.578c1.024-.19 1.756-.811 1.756-1.814 0-.525-.195-.907-.488-1.241-.39-.382-1.024-.62-1.853-.62h-2.78v6.253h.048zm-7.267-.572c-1.463 0-2.536-1.194-2.536-2.579 0-1.432 1.024-2.578 2.536-2.578 1.464 0 2.537 1.194 2.537 2.626-.05 1.385-1.073 2.53-2.537 2.53zm-.048.668c1.95 0 3.316-1.528 3.316-3.247 0-1.718-1.317-3.246-3.268-3.246-1.95 0-3.316 1.528-3.316 3.246 0 1.767 1.317 3.247 3.268 3.247zm-1.269-7.066h.878v-.812h-.878v.812zm1.708 0h.877v-.812h-.877v.812zM79.06 53.711c1.073 0 2-.43 2.585-.955v-2.53h-2.683v.62h1.951v1.576a3.171 3.171 0 01-1.853.62c-1.561 0-2.536-1.098-2.536-2.625 0-1.385 1.024-2.578 2.438-2.578.878 0 1.463.286 1.951.716l.488-.525c-.634-.526-1.317-.86-2.39-.86-1.951 0-3.219 1.528-3.219 3.247 0 1.862 1.268 3.294 3.268 3.294zm-15.851-.668c-1.268 0-2.146-.955-2.244-2.292h4.536c-.098 1.337-1.024 2.292-2.292 2.292zm-2.293-4.202c.634-.668 1.366-1.002 2.195-1.002 1.366 0 2.244.954 2.39 2.291h-5.316v.287c0 1.814 1.073 3.294 3.024 3.294 1.756 0 3.072-1.432 3.072-3.247v-.047c0-1.862-1.268-3.247-3.17-3.247-1.17 0-2 .43-2.731 1.194l.536.477zm-8.145 4.774h4.341v-.668h-3.609v-5.634h-.732v6.302zm-6.681 0h.731v-5.633h2.195v-.669h-5.072v.669h2.194v5.633h-.048zm-8.34-.572c-1.268 0-2.146-.955-2.244-2.292h4.536c-.098 1.337-.975 2.292-2.292 2.292zm-2.293-4.202c.634-.668 1.366-1.002 2.195-1.002 1.366 0 2.244.954 2.39 2.291h-5.267v.287c0 1.814 1.073 3.294 3.023 3.294 1.756 0 3.073-1.432 3.073-3.247v-.047c0-1.862-1.268-3.247-3.17-3.247-1.17 0-2.049.43-2.731 1.194l.487.477zm-9.315 4.774h5.17v-.62h-4.195l4.195-5.204v-.478h-5.073v.621h4.049l-4.146 5.204v.477zm-8.73 0h5.17v-.62h-4.195l4.195-5.204v-.478h-5.073v.621h4.048l-4.145 5.204v.477zm-6.438-.572c-1.268 0-2.146-.955-2.244-2.292h4.585c-.147 1.337-1.024 2.292-2.341 2.292zM8.68 48.84c.634-.668 1.366-1.002 2.195-1.002 1.366 0 2.244.954 2.39 2.291H7.999v.287c0 1.814 1.073 3.294 3.024 3.294 1.755 0 3.072-1.432 3.072-3.247v-.047c0-1.862-1.268-3.247-3.17-3.247-1.17 0-2 .43-2.731 1.194l.487.477zM.536 53.615h4.341v-.668H1.268v-5.634H.536v6.302zm59.112-39.96L55.65 22.82h7.706l-3.707-9.166z" fill="#FFF"/></svg>