<?xml version="1.0" standalone="no"?>
<!DOCTYPE svg PUBLIC "-//W3C//DTD SVG 20010904//EN"
 "http://www.w3.org/TR/2001/REC-SVG-20010904/DTD/svg10.dtd">
<svg version="1.0" xmlns="http://www.w3.org/2000/svg"
 width="850.000000pt" height="850.000000pt" viewBox="0 0 850.000000 850.000000"
 preserveAspectRatio="xMidYMid meet">
<metadata>
Created by potrace 1.11, written by Peter Selinger 2001-2013
</metadata>
<g transform="translate(0.000000,850.000000) scale(0.100000,-0.100000)"
fill="#000000" stroke="none">
<path d="M1858 7683 c-9 -10 -22 -56 -30 -103 -26 -145 -77 -399 -108 -530
-17 -69 -37 -170 -45 -225 -9 -55 -27 -140 -40 -190 -13 -49 -34 -146 -45
-215 -11 -69 -30 -157 -41 -196 -10 -39 -31 -136 -44 -215 -14 -79 -34 -175
-45 -214 -11 -38 -28 -126 -39 -193 -11 -68 -29 -156 -40 -195 -11 -40 -32
-137 -46 -217 -14 -80 -36 -183 -49 -230 -14 -47 -30 -125 -36 -175 -6 -49
-22 -131 -35 -180 -13 -50 -36 -158 -50 -240 -15 -83 -35 -179 -45 -215 -11
-36 -26 -112 -35 -170 -9 -58 -29 -157 -45 -220 -16 -63 -38 -171 -50 -240
-12 -69 -30 -154 -40 -190 -11 -36 -27 -112 -36 -170 -8 -58 -29 -157 -44
-220 -16 -63 -38 -171 -50 -240 -12 -69 -32 -161 -45 -205 -13 -44 -29 -120
-35 -170 -6 -49 -24 -142 -40 -205 -16 -63 -38 -171 -49 -240 -12 -69 -30
-154 -40 -189 -11 -35 -30 -123 -41 -195 -12 -72 -32 -167 -45 -211 -13 -44
-29 -114 -35 -155 -6 -41 -16 -104 -22 -140 -6 -36 -13 -86 -15 -111 -8 -83
-36 -79 575 -79 583 0 576 -1 606 59 8 15 25 97 36 182 12 85 33 202 46 261
13 59 33 168 44 244 11 75 29 172 40 215 11 43 31 151 45 240 14 89 34 199 45
245 11 46 29 147 40 223 11 77 28 175 39 218 11 43 31 151 45 240 14 89 35
199 45 245 11 46 29 146 41 223 11 77 30 177 40 223 11 45 31 156 45 245 14
89 36 209 49 267 14 58 28 141 31 185 15 177 76 167 172 -30 24 -49 66 -130
93 -180 27 -49 65 -121 84 -160 20 -38 58 -110 84 -160 27 -49 83 -157 125
-238 42 -82 85 -160 95 -175 10 -15 26 -47 36 -71 10 -25 26 -56 36 -70 10
-14 31 -53 48 -86 36 -71 108 -208 168 -320 23 -44 60 -114 82 -155 22 -41 60
-113 85 -160 25 -47 62 -116 82 -155 20 -38 58 -110 85 -160 27 -49 65 -121
85 -160 20 -38 58 -110 85 -160 27 -49 68 -126 90 -170 59 -115 90 -172 127
-237 19 -31 40 -76 49 -100 8 -23 23 -52 33 -63 10 -11 61 -103 113 -205 53
-102 101 -196 109 -208 37 -59 74 -31 147 115 33 65 81 159 106 208 26 50 56
108 67 130 11 22 27 54 36 70 9 17 55 104 101 195 47 91 107 208 134 260 28
52 58 113 69 135 11 22 28 56 40 75 11 19 31 60 45 90 14 30 32 66 40 80 8 14
32 59 54 100 103 200 144 279 166 325 14 28 30 59 37 70 6 11 30 56 53 100 22
44 50 98 62 120 12 22 30 58 41 80 10 22 43 85 71 140 29 55 61 118 71 140 11
22 27 54 36 70 28 50 104 196 135 260 16 33 36 71 44 85 8 14 29 54 45 89 17
35 41 80 54 100 13 20 31 55 39 79 8 23 28 61 44 85 16 23 33 53 37 67 4 14
25 58 46 98 22 41 39 79 39 87 0 23 41 65 64 65 13 0 30 -8 38 -17 17 -19 47
-160 73 -338 9 -60 27 -155 40 -210 12 -55 33 -163 45 -240 12 -77 31 -176 42
-220 11 -44 30 -148 43 -232 13 -83 33 -187 44 -230 11 -43 31 -150 45 -238
14 -88 33 -185 41 -215 8 -30 24 -116 35 -190 11 -74 32 -182 46 -240 13 -58
34 -166 44 -241 11 -74 29 -169 39 -210 11 -41 31 -146 46 -233 14 -88 35
-195 46 -238 11 -43 26 -127 34 -185 16 -129 28 -144 112 -154 32 -3 148 -2
258 3 110 5 356 7 547 6 191 -1 350 1 355 5 6 7 -39 250 -194 1037 -35 177
-55 309 -58 370 -2 63 -13 134 -33 210 -17 63 -38 162 -47 220 -9 58 -27 146
-40 195 -14 50 -34 149 -45 220 -12 72 -32 174 -46 227 -13 53 -33 150 -44
215 -11 65 -29 150 -39 188 -11 39 -29 128 -40 199 -12 71 -32 172 -46 225
-13 53 -34 152 -45 220 -12 69 -30 157 -40 195 -11 39 -29 127 -40 196 -11 69
-28 157 -39 195 -11 39 -31 138 -46 220 -14 83 -34 182 -45 220 -10 39 -31
138 -45 220 -15 83 -35 182 -45 220 -10 39 -26 117 -35 175 -9 58 -30 157 -45
220 -16 63 -35 162 -44 220 -9 58 -25 137 -36 175 -11 39 -30 133 -44 210 -13
77 -34 176 -45 220 -11 44 -29 136 -41 205 -12 69 -29 159 -40 200 -10 41 -21
96 -25 123 -7 54 -40 86 -71 69 -9 -5 -45 -63 -79 -128 -34 -66 -76 -141 -94
-168 -17 -28 -31 -55 -31 -62 0 -6 -12 -29 -27 -50 -15 -21 -41 -66 -58 -99
-18 -33 -53 -97 -78 -142 -26 -46 -68 -120 -93 -165 -26 -46 -66 -117 -90
-158 -24 -41 -55 -99 -70 -128 -14 -29 -41 -75 -60 -103 -19 -28 -34 -57 -34
-64 0 -7 -16 -36 -35 -65 -19 -29 -35 -55 -35 -59 0 -4 -16 -34 -36 -67 -21
-32 -50 -84 -66 -114 -15 -30 -51 -93 -78 -140 -27 -47 -64 -114 -83 -150 -18
-36 -45 -83 -60 -105 -15 -22 -27 -45 -27 -51 0 -6 -20 -42 -45 -80 -25 -37
-45 -73 -45 -80 0 -7 -16 -35 -35 -64 -19 -28 -44 -73 -55 -98 -12 -25 -27
-53 -35 -62 -7 -8 -29 -44 -48 -80 -18 -36 -56 -103 -82 -150 -26 -47 -63
-114 -81 -149 -19 -35 -40 -71 -48 -80 -9 -9 -25 -39 -37 -66 -12 -28 -32 -64
-45 -81 -13 -18 -35 -56 -49 -85 -14 -30 -47 -92 -74 -139 -28 -47 -68 -119
-91 -160 -23 -41 -63 -113 -91 -160 -27 -47 -58 -105 -70 -129 -12 -24 -39
-71 -60 -104 -21 -33 -39 -65 -39 -72 0 -7 -14 -31 -30 -54 -17 -23 -42 -65
-56 -94 -13 -28 -49 -95 -79 -147 -30 -52 -64 -114 -76 -137 -36 -72 -80 -70
-129 7 -17 27 -41 73 -52 102 -10 28 -28 64 -39 79 -10 15 -33 56 -50 91 -17
34 -52 104 -79 153 -27 50 -61 115 -75 145 -15 30 -40 75 -56 100 -15 25 -35
65 -43 88 -9 23 -26 57 -40 75 -13 17 -34 57 -46 87 -12 30 -27 61 -32 68 -6
7 -31 52 -56 100 -24 48 -63 123 -86 167 -23 44 -80 152 -126 240 -94 181
-147 282 -212 405 -24 47 -52 101 -62 120 -9 19 -26 53 -38 75 -61 114 -114
217 -146 280 -19 39 -43 82 -53 97 -11 15 -26 45 -34 67 -8 23 -27 60 -43 84
-16 23 -36 62 -46 86 -10 25 -26 57 -37 72 -10 15 -33 56 -49 91 -17 34 -55
108 -85 163 -30 55 -89 169 -132 253 -43 84 -98 192 -123 239 -25 47 -81 153
-124 236 -44 84 -98 188 -121 232 -23 44 -51 98 -63 120 -12 22 -34 65 -49 95
-14 30 -37 76 -50 102 -20 40 -47 68 -66 68 -2 0 -11 -8 -19 -17z"/>
</g>
</svg>
