<?xml version="1.0"?>
<svg xmlns="http://www.w3.org/2000/svg" xmlns:xlink="http://www.w3.org/1999/xlink" xmlns:svgjs="http://svgjs.com/svgjs" version="1.1" width="512px" height="512px" x="0" y="0" viewBox="0 0 512 512" style="enable-background:new 0 0 512 512" xml:space="preserve" class=""><g><g><path d="m256 0c-48.378 0-94.893 13.537-135 38.621v-23.621c0-8.284-6.716-15-15-15s-15 6.716-15 15v52.639c0 5.769 3.308 11.026 8.509 13.523 5.2 2.496 11.372 1.79 15.874-1.819 40.267-32.28 88.892-49.343 140.617-49.343 124.617 0 226 101.383 226 226 0 48.228-16.33 96.526-45.982 136-4.976 6.624-3.64 16.027 2.984 21.002 6.623 4.975 16.026 3.64 21.002-2.984 33.53-44.636 51.996-99.334 51.996-154.018 0-140.959-115.049-256-256-256z" fill="#ffffff" data-original="#000000"/><path d="m256 512c48.378 0 94.893-13.537 135-38.621v23.621c0 8.284 6.716 15 15 15s15-6.716 15-15v-52.639c0-5.769-3.308-11.026-8.509-13.523-5.202-2.497-11.373-1.79-15.874 1.819-40.267 32.281-88.892 49.343-140.617 49.343-124.617 0-226-101.383-226-226 0-48.228 16.33-96.526 45.982-136 4.976-6.624 3.64-16.027-2.984-21.002-6.625-4.976-16.027-3.639-21.002 2.984-33.53 44.636-51.996 99.334-51.996 154.018 0 140.959 115.049 256 256 256z" fill="#ffffff" data-original="#000000"/><path d="m256 452c8.284 0 15-6.716 15-15v-45.174c31.189-.777 56.649-4.452 77.289-16.232 28.74-16.405 42.711-45.711 42.711-89.594 0-70.354-78.857-172.996-124.051-221.252-2.836-3.029-6.8-4.748-10.949-4.748s-8.113 1.719-10.949 4.748c-44.623 47.646-124.051 150.576-124.051 221.252 0 43.883 13.971 73.189 42.711 89.594 20.64 11.78 46.1 15.455 77.289 16.232v45.174c0 8.284 6.716 15 15 15zm-77.417-102.461c-11.841-6.759-27.583-20.698-27.583-63.539 0-61.877 76.202-155.365 105.059-188.546 37.053 42.359 104.941 131.718 104.941 188.546 0 42.841-15.742 56.78-27.583 63.539-15.862 9.054-38.676 11.652-62.417 12.282v-39.607l55.606-55.606c5.858-5.858 5.858-15.355 0-21.213-5.857-5.858-15.355-5.858-21.213 0l-34.393 34.392v-47.574l25.606-25.606c5.858-5.858 5.858-15.355 0-21.213-5.857-5.858-15.355-5.858-21.213 0l-19.393 19.393-19.394-19.394c-5.857-5.858-15.355-5.858-21.213 0s-5.858 15.355 0 21.213l25.607 25.607v47.574l-34.394-34.394c-5.857-5.858-15.355-5.858-21.213 0s-5.858 15.355 0 21.213l55.607 55.607v39.607c-23.741-.629-46.556-3.228-62.417-12.281z" fill="#ffffff" data-original="#000000"/></g></g></svg>
