<?xml version="1.0"?>
<svg xmlns="http://www.w3.org/2000/svg" xmlns:xlink="http://www.w3.org/1999/xlink" xmlns:svgjs="http://svgjs.com/svgjs" version="1.1" width="512px" height="512px" x="0" y="0" viewBox="0 0 612 612" style="enable-background:new 0 0 512 512" xml:space="preserve"><g><g><g id="NFC_1_"><path d="m306 0c-168.999 0-306 137.001-306 306s137.001 306 306 306 306-137.001 306-306-137.001-306-306-306zm0 571.2c-146.466 0-265.2-118.734-265.2-265.2s118.734-265.2 265.2-265.2 265.2 118.734 265.2 265.2-118.734 265.2-265.2 265.2z" fill="#ffffff" data-original="#000000"/><path d="m285.6 469.2c-33.8 0-61.2-27.4-61.2-61.2v-226.236l106.284 136.68c3.851 5.003 9.802 7.941 16.116 7.956 11.267-.027 20.378-9.182 20.351-20.449-.011-4.485-1.499-8.841-4.235-12.395l-142.8-183.6c-6.904-8.86-36.516-8.666-36.516 12.444v285.6c0 56.333 45.667 102 102 102 11.267 0 20.4-9.133 20.4-20.4s-9.133-20.4-20.4-20.4z" fill="#ffffff" data-original="#000000"/><path d="m326.4 102c-11.267 0-20.4 9.133-20.4 20.4s9.133 20.4 20.4 20.4c33.8 0 61.2 27.4 61.2 61.2v226.236l-106.284-136.68c-6.323-9.325-19.008-11.759-28.333-5.436s-11.759 19.008-5.436 28.333c.471.695.984 1.359 1.537 1.991l142.8 183.6c11.629 14.542 33.375 7.956 34.68-12.444v-285.6c.009-55.624-44.549-100.999-100.164-102z" fill="#ffffff" data-original="#000000"/></g></g></g></svg>
