<?xml version="1.0"?>
<svg xmlns="http://www.w3.org/2000/svg" xmlns:xlink="http://www.w3.org/1999/xlink" xmlns:svgjs="http://svgjs.com/svgjs" version="1.1" width="512px" height="512px" x="0" y="0" viewBox="0 0 53.985 57.691" style="enable-background:new 0 0 512 512" xml:space="preserve"><g><path d="m26.717 39.479c-3.977 0-6.678-2.847-7.609-5.743-.312-.971.222-2.011 1.192-2.323.977-.31 2.011.223 2.323 1.192.491 1.528 1.896 3.28 4.294 3.178 1.038-.05 1.878.748 1.921 1.768.043 1.019-.748 1.879-1.767 1.922-.118.004-.237.006-.354.006z" fill="#ffffff" data-original="#000000"/><path d="m26.993 57.691c-1.02 0-1.846-.826-1.846-1.846v-31.675c0-1.02.826-1.846 1.846-1.846 1.019 0 1.845.826 1.845 1.846v31.676c0 1.019-.826 1.845-1.845 1.845z" fill="#ffffff" data-original="#000000"/><path d="m31.221 57.691h-8.453c-1.02 0-1.846-.826-1.846-1.846s.827-1.845 1.846-1.845h8.453c1.02 0 1.846.826 1.846 1.846s-.827 1.845-1.846 1.845z" fill="#ffffff" data-original="#000000"/><path d="m26.995 34.617c-1.02 0-1.846-.826-1.846-1.846s.826-1.846 1.846-1.846c1.671 0 3.036-.53 3.944-1.533.778-.86 1.159-2.021 1.043-3.185-.102-1.015.64-1.919 1.654-2.02 1.015-.1 1.919.64 2.02 1.654.219 2.198-.503 4.396-1.98 6.027-1.605 1.774-3.978 2.749-6.681 2.749z" fill="#ffffff" data-original="#000000"/><path d="m37.758 48.865c-2.57 0-5.126-.889-7.079-2.603-.767-.673-.842-1.839-.17-2.605.673-.767 1.84-.843 2.605-.17 2.167 1.902 5.48 2.243 8.054.831 2.403-1.318 3.51-3.837 3.036-6.91-.103-.66.161-1.325.688-1.736 4.672-3.648 6.447-8.599 4.749-13.243-1.755-4.797-6.615-7.87-12.104-7.668-.521.023-1.044-.189-1.409-.574s-.548-.908-.5-1.437c.229-2.517-.407-4.614-1.888-6.234-1.591-1.742-4.177-2.824-6.748-2.824s-5.157 1.082-6.748 2.824c-1.48 1.62-2.116 3.718-1.888 6.234.048.528-.135 1.052-.5 1.437s-.885.596-1.409.574c-5.516-.223-10.35 2.871-12.104 7.668-1.698 4.645.077 9.595 4.749 13.243.527.411.791 1.076.688 1.736-.474 3.073.632 5.592 3.035 6.91 2.577 1.413 5.888 1.071 8.055-.831.768-.674 1.934-.596 2.605.17.673.767.597 1.933-.17 2.605-3.311 2.905-8.356 3.438-12.266 1.293-3.491-1.916-5.323-5.468-5.029-9.637-5.385-4.623-7.305-10.821-5.134-16.758 2.092-5.721 7.482-9.589 13.761-10.055.139-2.73 1.118-5.15 2.882-7.08 2.303-2.52 5.844-4.025 9.474-4.025 3.629 0 7.17 1.505 9.473 4.025 1.764 1.93 2.743 4.35 2.882 7.08 6.278.466 11.669 4.334 13.761 10.055 2.172 5.937.251 12.135-5.135 16.759.294 4.169-1.538 7.721-5.029 9.637-1.605.88-3.399 1.309-5.187 1.309z" fill="#ffffff" data-original="#000000"/></g></svg>
