<?xml version="1.0"?>
<svg xmlns="http://www.w3.org/2000/svg" xmlns:xlink="http://www.w3.org/1999/xlink" xmlns:svgjs="http://svgjs.com/svgjs" version="1.1" width="512px" height="512px" x="0" y="0" viewBox="0 0 16 16" style="enable-background:new 0 0 512 512" xml:space="preserve" class=""><g><path d="M14.5,7.3538V5.76A1.5016,1.5016,0,0,0,13,4.26h-.5V2.24A1.4988,1.4988,0,0,0,10.4443.8457l-2.32.9271A4.4914,4.4914,0,0,0,.5,5a4.3857,4.3857,0,0,0,.0475.47A1.1262,1.1262,0,0,0,.5,5.76v8A1.5017,1.5017,0,0,0,2,15.26H13a1.5017,1.5017,0,0,0,1.5-1.5V12.17a1.4977,1.4977,0,0,0,1-1.4079v-2A1.4977,1.4977,0,0,0,14.5,7.3538ZM10.813,1.7744A.4995.4995,0,0,1,11.5,2.24V4.26H9.4252A4.4585,4.4585,0,0,0,8.7844,2.585ZM5,1.5A3.5,3.5,0,1,1,1.5,5,3.5042,3.5042,0,0,1,5,1.5Zm8,12.76H2a.5006.5006,0,0,1-.5-.5l.0058-5.9593A4.4672,4.4672,0,0,0,9.4738,5.26H13a.5006.5006,0,0,1,.5.5V7.2617H12a1.5017,1.5017,0,0,0-1.5,1.5v2a1.5016,1.5016,0,0,0,1.5,1.5h1.5V13.76A.5006.5006,0,0,1,13,14.26Zm1.5-3.4981a.5.5,0,0,1-.4952.499L14,11.26l-.01.0019H12a.5006.5006,0,0,1-.5-.5v-2a.5006.5006,0,0,1,.5-.5h2a.5006.5006,0,0,1,.5.5Z" fill="#ffffff" data-original="#000000" class=""/><path d="M3.5,5.5h1v1a.5.5,0,0,0,1,0v-1h1a.5.5,0,0,0,0-1h-1v-1a.5.5,0,0,0-1,0v1h-1a.5.5,0,0,0,0,1Z" fill="#ffffff" data-original="#000000" class=""/></g></svg>
