<svg id="Layer_1" data-name="Layer 1" xmlns="http://www.w3.org/2000/svg" viewBox="0 0 1848.44 403.43"><defs><style>.cls-1{fill:#fff;}.cls-2{fill:#f15b25;}.cls-3{fill:#f27024;}</style></defs><path class="cls-1" d="M-728.59,664.81V321.58h37.78V664.81Z" transform="translate(1161.22 -262.79)"/><path class="cls-1" d="M-592.87,395.72q-11.67,0-19.35-7.68a25.69,25.69,0,0,1-7.7-18.89,25.66,25.66,0,0,1,7.7-18.89q7.69-7.69,19.35-7.69a26.1,26.1,0,0,1,19.12,7.92,25.6,25.6,0,0,1,7.92,18.66A25.36,25.36,0,0,1-573.75,388,26.51,26.51,0,0,1-592.87,395.72ZM-612,664.81V437.7h37.78V664.81Z" transform="translate(1161.22 -262.79)"/><path class="cls-1" d="M-344.77,666.21q-69.5,0-115.66-44.07T-506.6,500.66q0-73.21,42.91-121.26t118.92-48q76,0,125.91,63l-13.07,10.73q-44.31-56.9-112.84-56.9-68.1,0-106.33,42.67t-38.24,109.83q0,69.46,41,109.12t103.54,39.64q68.55,0,112.84-55.95l13.07,10.71Q-267.35,666.22-344.77,666.21Z" transform="translate(1161.22 -262.79)"/><path class="cls-1" d="M68.41,664.81,31.94,570.6H-135.72l-36.05,94.21h-17.72L-61.72,333.7h18.65L86.11,664.81ZM-129.46,554.28H25.64l-77.42-200.1-1.11,0Z" transform="translate(1161.22 -262.79)"/><path class="cls-1" d="M358.45,664.81H337.94l-99.32-139h-82.1v139H139.73V333.7H249.78q52.21,0,78.14,25.88t25.86,69.26q0,45.72-25.86,69.72t-68.35,26.81l-.4,1.35ZM156.52,350V509.51h86.29q94.15,0,94.18-81.14,0-39.18-22.62-58.75T251.21,350Z" transform="translate(1161.22 -262.79)"/><path class="cls-1" d="M426.09,664.81V333.7h89.54q77.86,0,124.74,45.94t46.85,120.09q0,74.13-46.18,119.62T517,664.81Zm16.75-16.32h72.79q69.92,0,112.39-41.28t42.41-107.48Q670.43,433,628,391.3T515.63,349.56H442.84Z" transform="translate(1161.22 -262.79)"/><path class="cls-2" d="M-943.45,437.19V401.5a97.47,97.47,0,0,0-79.08,79.08h35.28A62.92,62.92,0,0,1-943.45,437.19Z" transform="translate(1161.22 -262.79)"/><path class="cls-2" d="M-943.45,367V331.72c-78.27,8.52-140.72,70.56-148.83,148.83h34.88C-1049.7,421.34-1002.66,374.3-943.45,367Zm0,0V331.72c-78.27,8.52-140.72,70.56-148.83,148.83h34.88C-1049.7,421.34-1002.66,374.3-943.45,367Zm0,0V331.72c-78.27,8.52-140.72,70.56-148.83,148.83h34.88C-1049.7,421.34-1002.66,374.3-943.45,367Zm0-69.34V262.79c-116.39,8.51-209.66,101.78-217.77,217.76h34.47C-1118.64,382.82-1040.78,305.77-943.45,297.66Zm0,69.34V331.72c-78.27,8.52-140.72,70.56-148.83,148.83h34.88C-1049.7,421.34-1002.66,374.3-943.45,367Zm0,0V331.72c-78.27,8.52-140.72,70.56-148.83,148.83h34.88C-1049.7,421.34-1002.66,374.3-943.45,367Z" transform="translate(1161.22 -262.79)"/><path class="cls-3" d="M-943.45,367V331.72c-78.27,8.52-140.72,70.56-148.83,148.83h34.88C-1049.7,421.34-1002.66,374.3-943.45,367Z" transform="translate(1161.22 -262.79)"/><path class="cls-2" d="M-943.45,367V331.72c-78.27,8.52-140.72,70.56-148.83,148.83h34.88C-1049.7,421.34-1002.66,374.3-943.45,367Z" transform="translate(1161.22 -262.79)"/><path class="cls-1" d="M-909,331.72V366.6c64.89,8.11,115.17,63.66,115.17,131,0,73-59.2,132.6-132.2,132.6-66.91,0-122.87-50.28-131-115.16h-35.28C-1083.36,599-1012,664.65-926,664.65c92,0,166.67-75,166.67-167.07A166.75,166.75,0,0,0-909,331.72Z" transform="translate(1161.22 -262.79)"/></svg>